<?xml version="1.0" encoding="utf-8"?>
<!-- Generator: Adobe Illustrator 19.0.0, SVG Export Plug-In . SVG Version: 6.00 Build 0)  -->
<svg version="1.1" id="Layer_1" xmlns="http://www.w3.org/2000/svg" xmlns:xlink="http://www.w3.org/1999/xlink" x="0px" y="0px"
	 viewBox="0 0 439 82" enable-background="new 0 0 439 82" xml:space="preserve">
<g>
	<defs>
		<rect id="SVGID_1_" width="439" height="82"/>
	</defs>
	<clipPath id="SVGID_2_">
		<use xlink:href="#SVGID_1_"  overflow="visible"/>
	</clipPath>
	<path clip-path="url(#SVGID_2_)" fill="#88BE44" d="M40.6,82C18.2,82,0,63.8,0,41.4S18.2,0.9,40.6,0.9s40.6,18.2,40.6,40.6
		S62.9,82,40.6,82 M40.6,7.5c-18.7,0-34,15.2-34,34c0,18.7,15.2,34,34,34s34-15.2,34-34C74.5,22.7,59.3,7.5,40.6,7.5z"/>
	<path clip-path="url(#SVGID_2_)" fill="#88BE44" d="M40.6,68.4c-14.9,0-27-12.1-27-27c0-14.9,12.1-27,27-27s27,12.1,27,27
		C67.6,56.3,55.5,68.4,40.6,68.4 M40.6,21c-11.3,0-20.4,9.2-20.4,20.4c0,11.3,9.2,20.4,20.4,20.4S61,52.7,61,41.4
		C61,30.2,51.8,21,40.6,21z"/>
	<path clip-path="url(#SVGID_2_)" fill="#88BE44" d="M40.6,54.6c-7.2,0-13.1-5.9-13.1-13.1c0-7.2,5.9-13.1,13.1-13.1
		c7.2,0,13.1,5.9,13.1,13.1C53.7,48.7,47.8,54.6,40.6,54.6 M40.6,34.9c-3.6,0-6.5,2.9-6.5,6.5C34,45,37,48,40.6,48
		c3.6,0,6.5-2.9,6.5-6.5C47.1,37.8,44.2,34.9,40.6,34.9z"/>
	<path clip-path="url(#SVGID_2_)" fill="#2A2B29" d="M104.8,30.4c1.1-2,2.3-3.6,3.8-4.8c1.5-1.2,3.2-1.7,5.2-1.7
		c1.6,0,2.8,0.3,3.8,1l-0.5,6.1c-0.1,0.4-0.3,0.7-0.5,0.8c-0.2,0.2-0.5,0.2-0.8,0.2c-0.3,0-0.8-0.1-1.5-0.2
		c-0.6-0.1-1.3-0.2-1.9-0.2c-0.9,0-1.7,0.1-2.4,0.4c-0.7,0.3-1.3,0.6-1.9,1.1c-0.6,0.5-1.1,1.1-1.5,1.8c-0.4,0.7-0.8,1.5-1.2,2.4
		v20.9h-8.2V24.5h4.8c0.8,0,1.4,0.1,1.8,0.4c0.3,0.3,0.6,0.8,0.7,1.6L104.8,30.4"/>
	<path clip-path="url(#SVGID_2_)" fill="#2A2B29" d="M126,42.5c0.1,1.7,0.4,3.2,0.9,4.5c0.5,1.3,1.1,2.3,1.9,3.1
		c0.8,0.8,1.7,1.4,2.8,1.8c1.1,0.4,2.3,0.6,3.6,0.6c1.3,0,2.5-0.2,3.4-0.5c1-0.3,1.8-0.6,2.5-1c0.7-0.4,1.3-0.7,1.9-1
		c0.5-0.3,1.1-0.5,1.6-0.5c0.7,0,1.2,0.3,1.5,0.8l2.3,3c-0.9,1.1-1.9,1.9-3,2.7c-1.1,0.7-2.3,1.3-3.5,1.7c-1.2,0.4-2.5,0.7-3.7,0.9
		c-1.3,0.2-2.5,0.3-3.7,0.3c-2.4,0-4.5-0.4-6.6-1.2c-2-0.8-3.8-1.9-5.3-3.5c-1.5-1.5-2.7-3.4-3.5-5.7c-0.9-2.3-1.3-4.9-1.3-7.8
		c0-2.3,0.4-4.5,1.1-6.5s1.8-3.8,3.2-5.3c1.4-1.5,3.1-2.7,5.1-3.6c2-0.9,4.3-1.3,6.8-1.3c2.1,0,4.1,0.3,5.9,1c1.8,0.7,3.4,1.7,4.7,3
		c1.3,1.3,2.3,2.9,3.1,4.8c0.7,1.9,1.1,4.1,1.1,6.5c0,1.2-0.1,2.1-0.4,2.5c-0.3,0.4-0.8,0.6-1.5,0.6H126 M141.6,37.6
		c0-1.1-0.1-2.1-0.4-3c-0.3-0.9-0.7-1.8-1.3-2.5c-0.6-0.7-1.3-1.3-2.3-1.7c-0.9-0.4-2-0.6-3.2-0.6c-2.4,0-4.2,0.7-5.6,2
		c-1.4,1.3-2.2,3.2-2.6,5.7H141.6z"/>
	<path clip-path="url(#SVGID_2_)" fill="#2A2B29" d="M151.9,29.2c3.9-3.6,8.6-5.3,14.1-5.3c2,0,3.8,0.3,5.3,1c1.6,0.6,2.9,1.6,4,2.7
		c1.1,1.2,1.9,2.5,2.5,4.1c0.6,1.6,0.8,3.4,0.8,5.3v21.4h-3.7c-0.8,0-1.4-0.1-1.8-0.3c-0.4-0.2-0.7-0.7-1-1.4l-0.7-2.4
		c-0.9,0.8-1.7,1.4-2.5,2c-0.8,0.6-1.7,1.1-2.5,1.5c-0.9,0.4-1.8,0.7-2.8,0.9c-1,0.2-2.1,0.3-3.3,0.3c-1.4,0-2.8-0.2-4-0.6
		c-1.2-0.4-2.3-1-3.1-1.7c-0.9-0.8-1.6-1.7-2-2.9c-0.5-1.1-0.7-2.5-0.7-4c0-0.9,0.1-1.7,0.4-2.6c0.3-0.8,0.8-1.7,1.4-2.4
		c0.6-0.8,1.5-1.5,2.5-2.2c1-0.7,2.3-1.3,3.8-1.8c1.5-0.5,3.3-0.9,5.3-1.2c2-0.3,4.3-0.5,6.9-0.6v-2c0-2.3-0.5-3.9-1.5-5
		c-1-1.1-2.4-1.6-4.2-1.6c-1.3,0-2.4,0.2-3.3,0.5c-0.9,0.3-1.6,0.7-2.3,1c-0.7,0.4-1.3,0.7-1.8,1c-0.5,0.3-1.1,0.5-1.8,0.5
		c-0.6,0-1.1-0.1-1.5-0.4c-0.4-0.3-0.7-0.6-1-1L151.9,29.2 M170.6,43.9c-2.4,0.1-4.3,0.3-5.9,0.6c-1.6,0.3-2.9,0.7-3.9,1.1
		c-1,0.5-1.7,1-2.1,1.6c-0.4,0.6-0.6,1.3-0.6,2c0,1.4,0.4,2.5,1.3,3.1c0.8,0.6,2,0.9,3.3,0.9c1.7,0,3.1-0.3,4.3-0.9
		c1.2-0.6,2.4-1.5,3.6-2.8V43.9z"/>
	<rect x="183" y="9.3" clip-path="url(#SVGID_2_)" fill="#2A2B29" width="8.2" height="49.1"/>
	<path clip-path="url(#SVGID_2_)" fill="#2A2B29" d="M204.2,28.7c1.4-1.4,2.9-2.6,4.5-3.4c1.7-0.8,3.6-1.3,5.7-1.3
		c2,0,3.7,0.4,5.3,1.2c1.6,0.8,2.9,1.9,4,3.3c1.1,1.4,2,3.2,2.6,5.2c0.6,2,0.9,4.3,0.9,6.9c0,2.8-0.3,5.2-1,7.5
		c-0.7,2.2-1.7,4.2-2.9,5.8c-1.3,1.6-2.8,2.8-4.6,3.7c-1.8,0.9-3.8,1.3-5.9,1.3c-1.1,0-2-0.1-2.9-0.3c-0.9-0.2-1.6-0.5-2.4-0.9
		c-0.7-0.4-1.4-0.8-2-1.4c-0.6-0.5-1.2-1.1-1.7-1.8l-0.4,2.3c-0.1,0.6-0.4,1-0.7,1.2c-0.3,0.2-0.8,0.4-1.3,0.4h-5.4V9.3h8.2V28.7
		 M204.2,49.6c0.9,1.1,1.9,1.9,3,2.4c1.1,0.5,2.2,0.7,3.5,0.7c1.3,0,2.4-0.2,3.4-0.7c1-0.5,1.9-1.2,2.6-2.1c0.7-1,1.2-2.2,1.6-3.7
		c0.4-1.5,0.6-3.3,0.6-5.3c0-3.7-0.6-6.4-1.8-8.1c-1.2-1.7-3-2.5-5.3-2.5c-1.6,0-2.9,0.4-4.1,1.1c-1.2,0.7-2.3,1.7-3.3,3V49.6z"/>
	<path clip-path="url(#SVGID_2_)" fill="#2A2B29" d="M259.8,24.5v33.9h-5c-1.1,0-1.8-0.5-2-1.5l-0.6-2.7c-1.4,1.4-2.9,2.5-4.6,3.4
		c-1.7,0.9-3.6,1.3-5.9,1.3c-1.8,0-3.5-0.3-4.9-0.9c-1.4-0.6-2.6-1.5-3.6-2.7c-1-1.1-1.7-2.5-2.2-4.1c-0.5-1.6-0.7-3.3-0.7-5.2V24.5
		h8.2V46c0,2.1,0.5,3.7,1.4,4.8c1,1.1,2.4,1.7,4.3,1.7c1.4,0,2.7-0.3,4-0.9c1.2-0.6,2.4-1.5,3.5-2.6V24.5H259.8"/>
	<path clip-path="url(#SVGID_2_)" fill="#2A2B29" d="M289.2,27.9c0,0.6-0.1,1.1-0.3,1.7c-0.2,0.5-0.5,1-0.8,1.4L272,52.1h16.7v6.3
		h-26.2V55c0-0.4,0.1-0.8,0.3-1.3c0.2-0.5,0.4-1,0.8-1.5l16.2-21.4h-16.3v-6.2h25.7V27.9"/>
	<path clip-path="url(#SVGID_2_)" fill="#2A2B29" d="M317.2,27.9c0,0.6-0.1,1.1-0.3,1.7c-0.2,0.5-0.5,1-0.8,1.4l-16.1,21.2h16.7v6.3
		h-26.2V55c0-0.4,0.1-0.8,0.3-1.3c0.2-0.5,0.4-1,0.8-1.5l16.2-21.4h-16.3v-6.2h25.7V27.9"/>
	<path clip-path="url(#SVGID_2_)" fill="#2A2B29" d="M320.3,53.2c0-0.6,0.1-1.3,0.4-1.9c0.2-0.6,0.6-1.1,1-1.5
		c0.4-0.4,0.9-0.8,1.5-1c0.6-0.3,1.2-0.4,1.9-0.4c0.7,0,1.3,0.1,1.9,0.4c0.6,0.3,1.1,0.6,1.5,1c0.4,0.4,0.8,0.9,1,1.5
		c0.3,0.6,0.4,1.2,0.4,1.9c0,0.7-0.1,1.3-0.4,1.9c-0.3,0.6-0.6,1.1-1,1.5c-0.4,0.4-0.9,0.7-1.5,1c-0.6,0.2-1.2,0.4-1.9,0.4
		c-0.7,0-1.3-0.1-1.9-0.4c-0.6-0.2-1.1-0.6-1.5-1c-0.4-0.4-0.7-0.9-1-1.5C320.4,54.5,320.3,53.9,320.3,53.2"/>
	<path clip-path="url(#SVGID_2_)" fill="#2A2B29" d="M356.4,32.1c-0.2,0.3-0.5,0.5-0.7,0.7s-0.5,0.3-1,0.3c-0.4,0-0.8-0.1-1.2-0.4
		c-0.4-0.2-0.8-0.5-1.4-0.8c-0.5-0.3-1.1-0.6-1.9-0.8c-0.7-0.2-1.6-0.4-2.7-0.4c-1.4,0-2.6,0.2-3.6,0.7c-1,0.5-1.9,1.2-2.6,2.1
		c-0.7,0.9-1.2,2-1.5,3.3c-0.3,1.3-0.5,2.8-0.5,4.4c0,1.7,0.2,3.2,0.5,4.6c0.4,1.3,0.9,2.5,1.6,3.4c0.7,0.9,1.5,1.6,2.5,2.1
		c1,0.5,2.1,0.7,3.3,0.7c1.2,0,2.2-0.2,3-0.5c0.8-0.3,1.4-0.6,1.9-1c0.5-0.4,1-0.7,1.4-1c0.4-0.3,0.8-0.5,1.3-0.5
		c0.6,0,1.1,0.2,1.4,0.7l2.2,2.8c-0.9,1-1.8,1.8-2.8,2.5c-1,0.7-2,1.2-3.1,1.6c-1.1,0.4-2.2,0.7-3.3,0.9c-1.1,0.2-2.3,0.3-3.4,0.3
		c-2,0-3.9-0.4-5.6-1.1c-1.8-0.7-3.3-1.8-4.6-3.3c-1.3-1.4-2.4-3.2-3.1-5.2c-0.8-2.1-1.1-4.4-1.1-7.1c0-2.4,0.3-4.6,1-6.6
		s1.7-3.8,3-5.2c1.3-1.5,3-2.6,4.9-3.5c1.9-0.8,4.2-1.3,6.7-1.3c2.4,0,4.5,0.4,6.3,1.2c1.8,0.8,3.4,1.9,4.9,3.3L356.4,32.1"/>
	<path clip-path="url(#SVGID_2_)" fill="#2A2B29" d="M374.3,24.8c2.4,0,4.6,0.4,6.5,1.2c2,0.8,3.6,1.9,5,3.3
		c1.4,1.4,2.5,3.2,3.2,5.2c0.8,2.1,1.1,4.3,1.1,6.9c0,2.6-0.4,4.9-1.1,6.9c-0.8,2.1-1.8,3.8-3.2,5.2c-1.4,1.4-3.1,2.6-5,3.3
		c-2,0.8-4.1,1.2-6.5,1.2c-2.4,0-4.6-0.4-6.6-1.2s-3.6-1.9-5-3.3c-1.4-1.4-2.5-3.2-3.2-5.2c-0.8-2.1-1.1-4.4-1.1-6.9
		c0-2.5,0.4-4.8,1.1-6.9c0.8-2.1,1.8-3.8,3.2-5.2c1.4-1.4,3.1-2.5,5-3.3C369.7,25.1,371.9,24.8,374.3,24.8 M374.3,52
		c2.7,0,4.7-0.9,6-2.7c1.3-1.8,1.9-4.4,1.9-7.9s-0.6-6.1-1.9-8c-1.3-1.8-3.3-2.7-6-2.7c-2.7,0-4.7,0.9-6.1,2.8c-1.3,1.8-2,4.5-2,7.9
		s0.7,6.1,2,7.9C369.6,51.1,371.6,52,374.3,52z"/>
	<path clip-path="url(#SVGID_2_)" fill="#2A2B29" d="M393.2,57.5V25.3h4.7c1,0,1.7,0.5,2,1.4l0.5,2.4c0.6-0.6,1.2-1.2,1.8-1.7
		c0.6-0.5,1.3-1,2-1.4c0.7-0.4,1.5-0.7,2.3-0.9c0.8-0.2,1.7-0.3,2.7-0.3c2,0,3.7,0.5,5,1.7c1.3,1.1,2.3,2.6,2.9,4.4
		c0.5-1.1,1.1-2,1.9-2.8c0.8-0.8,1.6-1.4,2.5-1.9c0.9-0.5,1.9-0.8,2.9-1.1c1-0.2,2-0.3,3.1-0.3c1.8,0,3.4,0.3,4.7,0.8
		c1.4,0.5,2.5,1.3,3.5,2.4c0.9,1,1.7,2.3,2.2,3.8c0.5,1.5,0.7,3.2,0.7,5.2v20.5h-7.8V37c0-2.1-0.5-3.6-1.4-4.6c-0.9-1-2.2-1.6-4-1.6
		c-0.8,0-1.5,0.1-2.2,0.4c-0.7,0.3-1.3,0.7-1.8,1.2c-0.5,0.5-0.9,1.2-1.2,1.9c-0.3,0.8-0.4,1.7-0.4,2.7v20.5H412V37
		c0-2.2-0.4-3.7-1.3-4.7c-0.9-1-2.1-1.5-3.8-1.5c-1.1,0-2.2,0.3-3.2,0.8s-1.9,1.3-2.7,2.3v23.6H393.2"/>
</g>
</svg>
