<?xml version="1.0" encoding="utf-8"?>
<!-- Generator: Adobe Illustrator 19.0.0, SVG Export Plug-In . SVG Version: 6.00 Build 0)  -->
<svg version="1.1" id="Layer_1" xmlns="http://www.w3.org/2000/svg" xmlns:xlink="http://www.w3.org/1999/xlink" x="0px" y="0px"
	 viewBox="-280 460 439 82" style="enable-background:new -280 460 439 82;" xml:space="preserve">
<style type="text/css">
	.st0{display:none;}
	.st1{display:inline;}
	.st2{fill:#FFFFFF;}
</style>
<g>
	<g class="st0">
		<defs>
			<rect id="SVGID_1_" x="-280" y="460" width="439" height="82"/>
		</defs>
		<clipPath id="SVGID_2_" class="st1">
			<use xlink:href="#SVGID_1_"  style="overflow:visible;"/>
		</clipPath>
	</g>
	<g class="st0">
		<defs>
			<rect id="SVGID_3_" x="-280" y="460" width="439" height="82"/>
		</defs>
		<clipPath id="SVGID_4_" class="st1">
			<use xlink:href="#SVGID_3_"  style="overflow:visible;"/>
		</clipPath>
	</g>
	<g class="st0">
		<defs>
			<rect id="SVGID_5_" x="-280" y="460" width="439" height="82"/>
		</defs>
		<clipPath id="SVGID_6_" class="st1">
			<use xlink:href="#SVGID_5_"  style="overflow:visible;"/>
		</clipPath>
	</g>
	<g class="st0">
		<defs>
			<rect id="SVGID_7_" x="-280" y="460" width="439" height="82"/>
		</defs>
		<clipPath id="SVGID_8_" class="st1">
			<use xlink:href="#SVGID_7_"  style="overflow:visible;"/>
		</clipPath>
	</g>
	<g class="st0">
		<defs>
			<rect id="SVGID_9_" x="-280" y="460" width="439" height="82"/>
		</defs>
		<clipPath id="SVGID_10_" class="st1">
			<use xlink:href="#SVGID_9_"  style="overflow:visible;"/>
		</clipPath>
	</g>
	<g class="st0">
		<defs>
			<rect id="SVGID_11_" x="-280" y="460" width="439" height="82"/>
		</defs>
		<clipPath id="SVGID_12_" class="st1">
			<use xlink:href="#SVGID_11_"  style="overflow:visible;"/>
		</clipPath>
	</g>
	<g class="st0">
		<defs>
			<rect id="SVGID_13_" x="-280" y="460" width="439" height="82"/>
		</defs>
		<clipPath id="SVGID_14_" class="st1">
			<use xlink:href="#SVGID_13_"  style="overflow:visible;"/>
		</clipPath>
	</g>
	<g class="st0">
		<defs>
			<rect id="SVGID_15_" x="-280" y="460" width="439" height="82"/>
		</defs>
		<clipPath id="SVGID_16_" class="st1">
			<use xlink:href="#SVGID_15_"  style="overflow:visible;"/>
		</clipPath>
	</g>
</g>
<path class="st2" d="M37.2,487.9c0,0.6-0.1,1.1-0.3,1.7c-0.2,0.5-0.5,1-0.8,1.4L20,512.2h16.7v6.3H10.5V515c0-0.4,0.1-0.8,0.3-1.3
	c0.2-0.5,0.4-1,0.8-1.5l16.2-21.4H11.5v-6.2h25.7L37.2,487.9"/>
<path class="st2" d="M9.2,487.9c0,0.6-0.1,1.1-0.3,1.7c-0.2,0.5-0.5,1-0.8,1.4L-8,512.1H8.7v6.3h-26.2V515c0-0.4,0.1-0.8,0.3-1.3
	c0.2-0.5,0.4-1,0.8-1.5l16.2-21.4h-16.3v-6.2H9.2V487.9"/>
<path class="st2" d="M-239.4,514.6c-7.2,0-13.1-5.9-13.1-13.1s5.9-13.1,13.1-13.1c7.2,0,13.1,5.9,13.1,13.1
	S-232.2,514.6-239.4,514.6 M-239.4,494.9c-3.6,0-6.5,2.9-6.5,6.5c-0.1,3.6,2.9,6.6,6.5,6.6c3.6,0,6.5-2.9,6.5-6.5
	C-232.9,497.8-235.8,494.9-239.4,494.9z"/>
<path class="st2" d="M-239.4,528.4c-14.9,0-27-12.1-27-27s12.1-27,27-27c14.9,0,27,12.1,27,27S-224.5,528.4-239.4,528.4 M-239.4,481
	c-11.3,0-20.4,9.2-20.4,20.4c0,11.3,9.2,20.4,20.4,20.4c11.2,0,20.4-9.1,20.4-20.4C-219,490.2-228.2,481-239.4,481z"/>
<path class="st2" d="M-239.4,542c-22.4,0-40.6-18.2-40.6-40.6s18.2-40.5,40.6-40.5s40.6,18.2,40.6,40.6
	C-198.8,523.9-217.1,542-239.4,542 M-239.4,467.5c-18.7,0-34,15.2-34,34c0,18.7,15.2,34,34,34c18.8,0,34-15.2,34-34
	C-205.5,482.7-220.7,467.5-239.4,467.5z"/>
<path class="st2" d="M-175.2,490.4c1.1-2,2.3-3.6,3.8-4.8c1.5-1.2,3.2-1.7,5.2-1.7c1.6,0,2.8,0.3,3.8,1l-0.5,6.1
	c-0.1,0.4-0.3,0.7-0.5,0.8c-0.2,0.2-0.5,0.2-0.8,0.2s-0.8-0.1-1.5-0.2c-0.6-0.1-1.3-0.2-1.9-0.2c-0.9,0-1.7,0.1-2.4,0.4
	c-0.7,0.3-1.3,0.6-1.9,1.1c-0.6,0.5-1.1,1.1-1.5,1.8c-0.4,0.7-0.8,1.5-1.2,2.4v20.9h-8.2v-33.7h4.8c0.8,0,1.4,0.1,1.8,0.4
	c0.3,0.3,0.6,0.8,0.7,1.6L-175.2,490.4"/>
<path class="st2" d="M-154,502.5c0.1,1.7,0.4,3.2,0.9,4.5s1.1,2.3,1.9,3.1c0.8,0.8,1.7,1.4,2.8,1.8s2.3,0.6,3.6,0.6s2.5-0.2,3.4-0.5
	c1-0.3,1.8-0.6,2.5-1s1.3-0.7,1.9-1c0.5-0.3,1.1-0.5,1.6-0.5c0.7,0,1.2,0.3,1.5,0.8l2.3,3c-0.9,1.1-1.9,1.9-3,2.7
	c-1.1,0.7-2.3,1.3-3.5,1.7c-1.2,0.4-2.5,0.7-3.7,0.9c-1.3,0.2-2.5,0.3-3.7,0.3c-2.4,0-4.5-0.4-6.6-1.2c-2-0.8-3.8-1.9-5.3-3.5
	c-1.5-1.5-2.7-3.4-3.5-5.7c-0.9-2.3-1.3-4.9-1.3-7.8c0-2.3,0.4-4.5,1.1-6.5s1.8-3.8,3.2-5.3s3.1-2.7,5.1-3.6c2-0.9,4.3-1.3,6.8-1.3
	c2.1,0,4.1,0.3,5.9,1c1.8,0.7,3.4,1.7,4.7,3s2.3,2.9,3.1,4.8c0.7,1.9,1.1,4.1,1.1,6.5c0,1.2-0.1,2.1-0.4,2.5
	c-0.3,0.4-0.8,0.6-1.5,0.6H-154 M-138.4,497.6c0-1.1-0.1-2.1-0.4-3c-0.3-0.9-0.7-1.8-1.3-2.5c-0.6-0.7-1.3-1.3-2.3-1.7
	c-0.9-0.4-2-0.6-3.2-0.6c-2.4,0-4.2,0.7-5.6,2c-1.4,1.3-2.2,3.2-2.6,5.7h15.4V497.6z"/>
<path class="st2" d="M-128.1,489.2c3.9-3.6,8.6-5.3,14.1-5.3c2,0,3.8,0.3,5.3,1c1.6,0.6,2.9,1.6,4,2.7c1.1,1.2,1.9,2.5,2.5,4.1
	c0.6,1.6,0.8,3.4,0.8,5.3v21.4h-3.7c-0.8,0-1.4-0.1-1.8-0.3c-0.4-0.2-0.7-0.7-1-1.4l-0.7-2.4c-0.9,0.8-1.7,1.4-2.5,2
	c-0.8,0.6-1.7,1.1-2.5,1.5c-0.9,0.4-1.8,0.7-2.8,0.9s-2.1,0.3-3.3,0.3c-1.4,0-2.8-0.2-4-0.6c-1.2-0.4-2.3-1-3.1-1.7
	c-0.9-0.8-1.6-1.7-2-2.9c-0.5-1.1-0.7-2.5-0.7-4c0-0.9,0.1-1.7,0.4-2.6c0.3-0.8,0.8-1.7,1.4-2.4c0.6-0.8,1.5-1.5,2.5-2.2
	c1-0.7,2.3-1.3,3.8-1.8s3.3-0.9,5.3-1.2c2-0.3,4.3-0.5,6.9-0.6v-2c0-2.3-0.5-3.9-1.5-5s-2.4-1.6-4.2-1.6c-1.3,0-2.4,0.2-3.3,0.5
	c-0.9,0.3-1.6,0.7-2.3,1c-0.7,0.4-1.3,0.7-1.8,1c-0.5,0.3-1.1,0.5-1.8,0.5c-0.6,0-1.1-0.1-1.5-0.4s-0.7-0.6-1-1L-128.1,489.2
	 M-109.4,503.9c-2.4,0.1-4.3,0.3-5.9,0.6c-1.6,0.3-2.9,0.7-3.9,1.1c-1,0.5-1.7,1-2.1,1.6c-0.4,0.6-0.6,1.3-0.6,2
	c0,1.4,0.4,2.5,1.3,3.1c0.8,0.6,2,0.9,3.3,0.9c1.7,0,3.1-0.3,4.3-0.9c1.2-0.6,2.4-1.5,3.6-2.8L-109.4,503.9L-109.4,503.9z"/>
<path class="st2" d="M-75.8,488.7c1.4-1.4,2.9-2.6,4.5-3.4c1.7-0.8,3.6-1.3,5.7-1.3c2,0,3.7,0.4,5.3,1.2c1.6,0.8,2.9,1.9,4,3.3
	s2,3.2,2.6,5.2s0.9,4.3,0.9,6.9c0,2.8-0.3,5.2-1,7.5c-0.7,2.2-1.7,4.2-2.9,5.8c-1.3,1.6-2.8,2.8-4.6,3.7c-1.8,0.9-3.8,1.3-5.9,1.3
	c-1.1,0-2-0.1-2.9-0.3c-0.9-0.2-1.6-0.5-2.4-0.9c-0.7-0.4-1.4-0.8-2-1.4c-0.6-0.5-1.2-1.1-1.7-1.8l-0.4,2.3c-0.1,0.6-0.4,1-0.7,1.2
	s-0.8,0.4-1.3,0.4H-84v-49.1h8.2L-75.8,488.7 M-75.8,509.6c0.9,1.1,1.9,1.9,3,2.4s2.2,0.7,3.5,0.7s2.4-0.2,3.4-0.7s1.9-1.2,2.6-2.1
	c0.7-1,1.2-2.2,1.6-3.7c0.4-1.5,0.6-3.3,0.6-5.3c0-3.7-0.6-6.4-1.8-8.1c-1.2-1.7-3-2.5-5.3-2.5c-1.6,0-2.9,0.4-4.1,1.1
	c-1.2,0.7-2.3,1.7-3.3,3v15.2H-75.8z"/>
<rect x="-97" y="469.3" class="st2" width="8.2" height="49.1"/>
<path class="st2" d="M-20.2,484.5v33.9h-5c-1.1,0-1.8-0.5-2-1.5l-0.6-2.7c-1.4,1.4-2.9,2.5-4.6,3.4c-1.7,0.9-3.6,1.3-5.9,1.3
	c-1.8,0-3.5-0.3-4.9-0.9s-2.6-1.5-3.6-2.7c-1-1.1-1.7-2.5-2.2-4.1c-0.5-1.6-0.7-3.3-0.7-5.2v-21.5h8.2V506c0,2.1,0.5,3.7,1.4,4.8
	c1,1.1,2.4,1.7,4.3,1.7c1.4,0,2.7-0.3,4-0.9c1.2-0.6,2.4-1.5,3.5-2.6v-24.5H-20.2"/>
<path class="st2" d="M40.3,513.2c0-0.6,0.1-1.3,0.4-1.9c0.2-0.6,0.6-1.1,1-1.5c0.4-0.4,0.9-0.8,1.5-1c0.6-0.3,1.2-0.4,1.9-0.4
	c0.7,0,1.3,0.1,1.9,0.4c0.6,0.3,1.1,0.6,1.5,1c0.4,0.4,0.8,0.9,1,1.5c0.3,0.6,0.4,1.2,0.4,1.9s-0.1,1.3-0.4,1.9
	c-0.3,0.6-0.6,1.1-1,1.5c-0.4,0.4-0.9,0.7-1.5,1c-0.6,0.2-1.2,0.4-1.9,0.4c-0.7,0-1.3-0.1-1.9-0.4c-0.6-0.2-1.1-0.6-1.5-1
	c-0.4-0.4-0.7-0.9-1-1.5C40.4,514.5,40.3,513.9,40.3,513.2"/>
<path class="st2" d="M76.4,492.1c-0.2,0.3-0.5,0.5-0.7,0.7c-0.2,0.2-0.5,0.3-1,0.3c-0.4,0-0.8-0.1-1.2-0.4c-0.4-0.2-0.8-0.5-1.4-0.8
	c-0.5-0.3-1.1-0.6-1.9-0.8c-0.7-0.2-1.6-0.4-2.7-0.4c-1.4,0-2.6,0.2-3.6,0.7s-1.9,1.2-2.6,2.1s-1.2,2-1.5,3.3
	c-0.3,1.3-0.5,2.8-0.5,4.4c0,1.7,0.2,3.2,0.5,4.6c0.4,1.3,0.9,2.5,1.6,3.4c0.7,0.9,1.5,1.6,2.5,2.1s2.1,0.7,3.3,0.7
	c1.2,0,2.2-0.2,3-0.5s1.4-0.6,1.9-1s1-0.7,1.4-1s0.8-0.5,1.3-0.5c0.6,0,1.1,0.2,1.4,0.7l2.2,2.8c-0.9,1-1.8,1.8-2.8,2.5
	s-2,1.2-3.1,1.6c-1.1,0.4-2.2,0.7-3.3,0.9c-1.1,0.2-2.3,0.3-3.4,0.3c-2,0-3.9-0.4-5.6-1.1c-1.8-0.7-3.3-1.8-4.6-3.3
	c-1.3-1.4-2.4-3.2-3.1-5.2c-0.8-2.1-1.1-4.4-1.1-7.1c0-2.4,0.3-4.6,1-6.6s1.7-3.8,3-5.2c1.3-1.5,3-2.6,4.9-3.5
	c1.9-0.8,4.2-1.3,6.7-1.3c2.4,0,4.5,0.4,6.3,1.2c1.8,0.8,3.4,1.9,4.9,3.3L76.4,492.1"/>
<path class="st2" d="M94.3,484.8c2.4,0,4.6,0.4,6.5,1.2c2,0.8,3.6,1.9,5,3.3c1.4,1.4,2.5,3.2,3.2,5.2c0.8,2.1,1.1,4.3,1.1,6.9
	s-0.4,4.9-1.1,6.9c-0.8,2.1-1.8,3.8-3.2,5.2c-1.4,1.4-3.1,2.6-5,3.3c-2,0.8-4.1,1.2-6.5,1.2s-4.6-0.4-6.6-1.2s-3.6-1.9-5-3.3
	s-2.5-3.2-3.2-5.2c-0.8-2.1-1.1-4.4-1.1-6.9s0.4-4.8,1.1-6.9c0.8-2.1,1.8-3.8,3.2-5.2c1.4-1.4,3.1-2.5,5-3.3
	C89.7,485.1,91.9,484.8,94.3,484.8 M94.3,512c2.7,0,4.7-0.9,6-2.7c1.3-1.8,1.9-4.4,1.9-7.9s-0.6-6.1-1.9-8c-1.3-1.8-3.3-2.7-6-2.7
	s-4.7,0.9-6.1,2.8c-1.3,1.8-2,4.5-2,7.9s0.7,6.1,2,7.9C89.6,511.1,91.6,512,94.3,512z"/>
<path class="st2" d="M113.2,517.5v-32.2h4.7c1,0,1.7,0.5,2,1.4l0.5,2.4c0.6-0.6,1.2-1.2,1.8-1.7c0.6-0.5,1.3-1,2-1.4
	s1.5-0.7,2.3-0.9c0.8-0.2,1.7-0.3,2.7-0.3c2,0,3.7,0.5,5,1.7c1.3,1.1,2.3,2.6,2.9,4.4c0.5-1.1,1.1-2,1.9-2.8
	c0.8-0.8,1.6-1.4,2.5-1.9s1.9-0.8,2.9-1.1c1-0.2,2-0.3,3.1-0.3c1.8,0,3.4,0.3,4.7,0.8c1.4,0.5,2.5,1.3,3.5,2.4
	c0.9,1,1.7,2.3,2.2,3.8s0.7,3.2,0.7,5.2v20.5h-7.8V497c0-2.1-0.5-3.6-1.4-4.6s-2.2-1.6-4-1.6c-0.8,0-1.5,0.1-2.2,0.4
	c-0.7,0.3-1.3,0.7-1.8,1.2s-0.9,1.2-1.2,1.9c-0.3,0.8-0.4,1.7-0.4,2.7v20.5H132V497c0-2.2-0.4-3.7-1.3-4.7s-2.1-1.5-3.8-1.5
	c-1.1,0-2.2,0.3-3.2,0.8s-1.9,1.3-2.7,2.3v23.6H113.2"/>
</svg>
